<?xml version="1.0"?>
<svg xmlns="http://www.w3.org/2000/svg" height="512px" viewBox="0 0 496 496" width="512px" class=""><g><path d="m384 400c-17.648438 0-32 14.351562-32 32s14.351562 32 32 32 32-14.351562 32-32-14.351562-32-32-32zm0 48c-8.824219 0-16-7.175781-16-16s7.175781-16 16-16 16 7.175781 16 16-7.175781 16-16 16zm0 0" data-original="#000000" class="active-path" data-old_color="#1a73e8" fill="#1a73e8"/><path d="m112 400c-17.648438 0-32 14.351562-32 32s14.351562 32 32 32 32-14.351562 32-32-14.351562-32-32-32zm0 48c-8.824219 0-16-7.175781-16-16s7.175781-16 16-16 16 7.175781 16 16-7.175781 16-16 16zm0 0" data-original="#000000" class="active-path" data-old_color="#1a73e8" fill="#1a73e8"/><path d="m468.65625 305.121094-22.328125-7.441406-15.441406-46.328126c-5.453125-16.359374-20.710938-27.351562-37.949219-27.351562h-88.9375v-72c0-13.230469-10.769531-24-24-24h-8.40625c.175781-2.65625.40625-5.296875.40625-8 0-66.167969-53.832031-120-120-120s-120 53.832031-120 120c0 2.703125.230469 5.34375.40625 8h-8.40625c-13.230469 0-24 10.769531-24 24v288c0 13.230469 10.769531 24 24 24h32.65625c11.085938 19.097656 31.710938 32 55.34375 32s44.257812-12.902344 55.34375-32h161.320312c11.089844 19.097656 31.710938 32 55.34375 32 23.632813 0 44.257813-12.902344 55.34375-32h32.648438c13.230469 0 24-10.769531 24-24v-96.9375c0-17.238281-10.992188-32.496094-27.34375-37.941406zm-75.71875-65.121094c10.34375 0 19.496094 6.59375 22.765625 16.40625l17.976563 53.914062 29.914062 9.976563c9.8125 3.269531 16.40625 12.421875 16.40625 22.765625v56.9375h-40.65625c-5.617188-9.671875-13.671875-17.726562-23.34375-23.34375v-63.359375c0-1.730469-.28125-3.433594-.824219-5.058594l-13.769531-41.300781c-2.175781-6.546875-8.277344-10.9375-15.175781-10.9375h-66.230469v144h-16v-160zm-56.9375 80h64v50.105469c-5.128906-1.328125-10.464844-2.105469-16-2.105469-19.121094 0-36.265625 8.472656-48 21.808594zm0-16v-32h50.230469l10.664062 32zm-80-184c0 8.273438-1.070312 16.28125-2.902344 24h-13.097656c-4.40625 0-8-3.59375-8-8v-16c0-13.230469-10.769531-24-24-24s-24 10.769531-24 24c0 4.40625-3.59375 8-8 8h-16c-13.230469 0-24 10.769531-24 24 0 4.40625-3.59375 8-8 8h-14.945312c-8.382813 0-16.269532 4.464844-20.574219 11.65625l-13.425781 22.367188c-8.589844-8.472657-15.640626-18.457032-20.894532-29.464844l19.527344-7.816406c11.121094-4.445313 18.304688-15.0625 18.304688-27.039063v-9.207031c0-6.03125 4.085937-11.265625 9.945312-12.726563 12.992188-3.257812 22.0625-14.875 22.0625-28.265625v-2.457031c0-5 2.785156-9.503906 7.246094-11.734375l8.65625-4.320312c9.929687-4.960938 16.097656-14.945313 16.097656-26.046876v-18.539062c5.464844.417969 10.800781 1.265625 16 2.503906v18.675782c0 14.214843 7.0625 27.40625 18.886719 35.292968 7 4.65625 15.136719 7.121094 23.539062 7.121094h29.550781c5.152344 12.320312 8.023438 25.832031 8.023438 40zm-144 113v39h-8c-4.40625 0-8-3.59375-8-8v-32c0-1.910156.71875-3.640625 1.871094-5.046875 4.554687 2.3125 9.273437 4.320313 14.128906 6.046875zm0 55h1.246094c4.960937 0 9.882812.375 14.753906.976562v39.023438c0 4.40625-3.59375 8-8 8s-8-3.59375-8-8zm16-15.113281v-35.300781c7.761719 1.574218 15.785156 2.414062 24 2.414062 14.039062 0 27.464844-2.550781 40-7v64.054688l-3.320312-2.207032c-18.289063-12.199218-39.039063-19.609375-60.679688-21.960937zm80-46.839844c5.632812-2.984375 10.945312-6.460937 16-10.277344v88.230469h-16zm32-.574219c9.289062 3.3125 16 12.113282 16 22.527344s-6.710938 19.214844-16 22.527344zm-88-1.472656c-22.585938 0-43.449219-7.3125-60.519531-19.59375l14.71875-24.527344c1.441406-2.390625 4.066406-3.878906 6.855469-3.878906h14.945312c13.230469 0 24-10.769531 24-24 0-4.40625 3.59375-8 8-8h16c13.230469 0 24-10.769531 24-24 0-4.40625 3.59375-8 8-8s8 3.59375 8 8v16c0 13.230469 10.769531 24 24 24h7.976562c-15.703124 37.542969-52.800781 64-95.976562 64zm87.496094-160h-21.070313c-5.234375 0-10.304687-1.535156-14.65625-4.441406-7.371093-4.902344-11.769531-13.125-11.769531-21.984375v-13.550781c19.609375 8.199218 36.128906 22.28125 47.496094 39.976562zm-95.496094-47.59375v18.546875c0 5-2.785156 9.503906-7.246094 11.734375l-8.65625 4.320312c-9.929687 4.960938-16.097656 14.945313-16.097656 26.046876v2.457031c0 6.03125-4.089844 11.265625-9.945312 12.726562-12.984376 3.25-22.054688 14.867188-22.054688 28.257813v9.207031c0 5.394531-3.238281 10.175781-8.246094 12.183594l-19.394531 7.753906c-2.800781-9.410156-4.359375-19.335937-4.359375-29.640625 0-54.648438 42.390625-99.488281 96-103.59375zm-120 127.59375h10.414062c6.296876 30.894531 24.523438 57.472656 49.609376 74.785156-2.550782 3.871094-4.023438 8.4375-4.023438 13.214844v32c0 10.414062 6.710938 19.214844 16 22.527344v41.472656c0 13.230469 10.769531 24 24 24s24-10.769531 24-24v-35.929688c12.648438 3.355469 24.742188 8.707032 35.808594 16.082032l17.765625 11.847656h42.425781v-32.808594c18.230469-3.71875 32-19.871094 32-39.191406s-13.769531-35.472656-32-39.191406v-7.503906c14.609375-15.800782 25.121094-35.441407 29.585938-57.304688h10.414062c4.40625 0 8 3.59375 8 8v248h-120.65625c-11.085938-19.097656-31.710938-32-55.34375-32s-44.257812 12.902344-55.34375 32h-40.65625v-248c0-4.40625 3.59375-8 8-8zm0 304c-4.40625 0-8-3.59375-8-8v-24h34.105469c-1.328125 5.128906-2.105469 10.464844-2.105469 16s.777344 10.871094 2.105469 16zm88 32c-26.472656 0-48-21.527344-48-48s21.527344-48 48-48 48 21.527344 48 48-21.527344 48-48 48zm61.894531-32c1.328125-5.128906 2.105469-10.464844 2.105469-16s-.777344-10.871094-2.105469-16h148.21875c-1.335937 5.128906-2.113281 10.464844-2.113281 16s.777344 10.871094 2.105469 16zm210.105469 32c-26.472656 0-48-21.527344-48-48s21.527344-48 48-48 48 21.527344 48 48-21.527344 48-48 48zm88-32h-26.105469c1.328125-5.128906 2.105469-10.464844 2.105469-16s-.777344-10.871094-2.105469-16h34.105469v24c0 4.40625-3.59375 8-8 8zm0 0" data-original="#000000" class="active-path" data-old_color="#1a73e8" fill="#1a73e8"/></g> </svg>
