<?xml version="1.0"?>
<svg xmlns="http://www.w3.org/2000/svg" xmlns:xlink="http://www.w3.org/1999/xlink" version="1.1" id="Layer_1" x="0px" y="0px" viewBox="0 0 496 496" style="enable-background:new 0 0 496 496;" xml:space="preserve" width="512px" height="512px" class=""><g><g>
	<g>
		<path d="M456,0c-6.8,0-12.76,3.16-17.88,8.512l-0.008-0.008C437.616,8.896,388.288,48,312,48h-40V0h-48v48h-40    C108.008,48,58.376,8.888,57.88,8.496l-0.008,0.008C52.752,3.16,46.8,0,40,0C14.016,0,0,45.336,0,88s14.016,88,40,88    c6.8,0,12.76-3.16,17.88-8.512l0.008,0.008C58.384,167.104,107.712,128,184,128h40v66.088C151.576,205.648,96,268.376,96,344    c0,83.816,68.184,152,152,152s152-68.184,152-152c0-75.624-55.576-138.352-128-149.912V128h40    c75.992,0,125.624,39.112,126.12,39.504l0.008-0.008C443.248,172.84,449.2,176,456,176c25.984,0,40-45.336,40-88S481.984,0,456,0z     M40,160c-9.792,0-24-28.048-24-72c0-43.952,14.208-72,24-72c7.864,0,18.56,18.112,22.472,48H48c-13.232,0-24,10.768-24,24    s10.768,24,24,24h14.472C58.56,141.888,47.864,160,40,160z M63.84,96H48c-4.416,0-8-3.584-8-8s3.584-8,8-8h15.84    c0.104,2.608,0.16,5.272,0.16,8C64,90.728,63.944,93.392,63.84,96z M176,112.248c-45.584,1.52-81.232,15.48-103.232,27.12    C77.52,124.104,80,105.84,80,88c0-17.84-2.48-36.104-7.232-51.368c22,11.64,57.648,25.6,103.232,27.12V112.248z M192,112V64h32v48    H192z M222.416,210.496c-15.288,14.232-35.416,37.072-48.632,67.648c-17.328-5.28-28.456-11.48-34.488-15.528    C159.24,236.048,188.576,216.968,222.416,210.496z M130.416,275.968c7.152,4.832,19.328,11.576,37.664,17.248    c-4.248,13.088-7.12,27.352-7.872,42.784H112.4C113.68,314.216,120.04,293.824,130.416,275.968z M112.4,352h47.808v0    c0.744,15.432,3.624,29.696,7.872,42.784c-18.336,5.68-30.512,12.416-37.664,17.248C120.04,394.176,113.68,373.784,112.4,352z     M139.296,425.392c6.024-4.056,17.152-10.248,34.488-15.528c13.216,30.576,33.344,53.416,48.632,67.648    C188.576,471.032,159.24,451.952,139.296,425.392z M240,471.616c-13.8-11.872-35.944-34.432-50.24-65.848    c13.792-2.984,30.44-5.12,50.24-5.592V471.616z M240,384.184c-22.256,0.504-40.88,2.992-56.24,6.472    c-3.976-11.848-6.552-24.784-7.328-38.656H240V384.184z M240,336h-63.568c0.776-13.864,3.368-26.8,7.36-38.648    c15.352,3.48,33.968,5.96,56.208,6.464V336z M240,287.824c-19.784-0.472-36.416-2.608-50.192-5.576    c14.296-31.36,36.4-53.936,50.192-65.832V287.824z M240,192.408V16h16v176.408c-2.664-0.144-5.296-0.408-8-0.408    C245.296,192,242.664,192.264,240,192.408z M256,336v-32.184c22.256-0.504,40.88-2.992,56.24-6.472    c3.976,11.848,6.552,24.784,7.328,38.656H256z M319.568,352c-0.776,13.864-3.368,26.8-7.36,38.648    c-15.352-3.48-33.968-5.96-56.208-6.464V352H319.568z M256,471.584v-71.408c19.784,0.472,36.416,2.608,50.192,5.576    C291.896,437.112,269.792,459.688,256,471.584z M273.584,477.504c15.288-14.232,35.416-37.072,48.632-67.648    c17.328,5.28,28.456,11.48,34.488,15.528C336.76,451.952,307.424,471.032,273.584,477.504z M365.584,412.032    c-7.152-4.832-19.328-11.576-37.664-17.248c4.248-13.088,7.12-27.352,7.872-42.784H383.6    C382.32,373.784,375.96,394.176,365.584,412.032z M383.6,336h-47.808c-0.744-15.432-3.624-29.696-7.872-42.784    c18.336-5.68,30.512-12.416,37.664-17.248C375.96,293.824,382.32,314.216,383.6,336z M356.704,262.608    c-6.024,4.056-17.152,10.248-34.488,15.528C309,247.56,288.872,224.72,273.584,210.488    C307.424,216.968,336.76,236.048,356.704,262.608z M306.24,282.232c-13.792,2.984-30.44,5.12-50.24,5.592v-71.44    C269.8,228.256,291.944,250.816,306.24,282.232z M304,112h-32V64h32V112z M423.232,139.368c-22-11.64-57.648-25.6-103.232-27.12    V63.752c45.584-1.52,81.232-15.48,103.232-27.12C418.48,51.896,416,70.16,416,88C416,105.84,418.48,124.104,423.232,139.368z     M432,88c0-2.728,0.056-5.392,0.16-8H448c4.416,0,8,3.584,8,8s-3.584,8-8,8h-15.84C432.056,93.392,432,90.728,432,88z M456,160    c-7.864,0-18.56-18.112-22.472-48H448c13.232,0,24-10.768,24-24s-10.768-24-24-24h-14.472C437.44,34.112,448.136,16,456,16    c9.792,0,24,28.048,24,72C480,131.952,465.792,160,456,160z" data-original="#000000" class="active-path" data-old_color="#1a73e8" fill="#1a73e8"/>
	</g>
</g></g> </svg>
