<?xml version="1.0"?>
<svg xmlns="http://www.w3.org/2000/svg" height="512px" viewBox="0 0 496 496" width="512px" class=""><g><path d="m472 32h-102.246094l-71.992187 288h-1.761719v-106.664062l-28-37.335938h-12v-16h48v-78.03125c0-33.105469-22.433594-61.832031-54.535156-69.839844l-47.519532-11.882812-17.945312-.246094v8c0 17.648438-14.351562 32-32 32s-32-14.351562-32-32v-8h-16l-49.464844 12.128906c-32.101562 8.015625-54.535156 36.734375-54.535156 69.839844v78.03125h48v144h152v16h-184v48h304c8.824219 0 16 7.175781 16 16s-7.175781 16-16 16h-272c-26.472656 0-48 21.527344-48 48s21.527344 48 48 48 48-21.527344 48-48c0-12.304688-4.6875-23.496094-12.320312-32h168.640624c-7.632812 8.503906-12.320312 19.695312-12.320312 32 0 26.472656 21.527344 48 48 48s48-21.527344 48-48c0-12.464844-4.816406-23.800781-12.632812-32.34375 16.046874-1.703125 28.632812-15.160156 28.632812-31.65625v-55.03125l62.246094-248.96875h57.753906c13.230469 0 24-10.769531 24-24s-10.769531-24-24-24zm-392 416c0 17.648438-14.351562 32-32 32s-32-14.351562-32-32 14.351562-32 32-32 32 14.351562 32 32zm208 32c-17.648438 0-32-14.351562-32-32s14.351562-32 32-32 32 14.351562 32 32-14.351562 32-32 32zm-8-261.335938v87.199219l-32-19.191406-32 19.191406v-87.199219l20-26.664062h24zm-24-74.664062v-16h32v16zm32-32h-32v-20.121094c0-10.6875 4.167969-20.734375 11.71875-28.285156l11.480469-11.480469c5.519531 8.726563 8.800781 18.933594 8.800781 29.855469zm-229.585938-84.359375 46.265626-11.5625c3.847656 22.632813 23.601562 39.921875 47.320312 39.921875s43.472656-17.289062 47.320312-39.921875l46.265626 11.5625c8.863281 2.214844 16.703124 6.535156 23.222656 12.230469l-12.410156 12.410156c-10.566407 10.574219-16.398438 24.640625-16.398438 39.597656v84.121094h-12l-25.601562 34.128906c-5.628907-1.402344-11.558594-2.128906-18.414063-2.128906-17.886719 0-27.289063 4.695312-35.585937 8.839844-7.679688 3.847656-14.308594 7.160156-28.429688 7.160156-14.105469 0-20.738281-3.3125-28.410156-7.160156-6.941406-3.472656-14.726563-7.296875-27.558594-8.457032v-116.503906c0-14.957031-5.832031-29.023437-16.40625-39.597656l-12.410156-12.410156c6.527344-5.695313 14.367187-10.015625 23.230468-12.230469zm5.585938 196.808594c8.910156 1.007812 14.367188 3.679687 20.40625 6.703125 8.289062 4.152344 17.683594 8.847656 35.5625 8.847656 17.886719 0 27.289062-4.695312 35.582031-8.839844 7.679688-3.839844 14.3125-7.160156 28.433594-7.160156 7.105469 0 12.128906.910156 16.015625 2.015625v15.550781c-4.929688-1.023437-10.128906-1.566406-16.015625-1.566406-17.886719 0-27.289063 4.695312-35.585937 8.839844-7.679688 3.847656-14.308594 7.160156-28.429688 7.160156-14.105469 0-20.738281-3.3125-28.410156-7.160156-6.941406-3.472656-14.726563-7.296875-27.558594-8.457032zm-39.199219-172.335938 11.480469 11.480469c7.550781 7.558594 11.71875 17.597656 11.71875 28.285156v20.121094h-32v-30.03125c0-10.921875 3.289062-21.128906 8.800781-29.855469zm-8.800781 91.886719v-16h32v16zm48 144v-31.550781c8.910156 1.007812 14.367188 3.679687 20.40625 6.703125 8.289062 4.152344 17.683594 8.847656 35.5625 8.847656 17.886719 0 27.289062-4.695312 35.582031-8.839844 7.679688-3.839844 14.3125-7.160156 28.433594-7.160156 7.113281 0 12.128906.910156 16.015625 2.023438v29.976562zm184 17.328125 24.449219 14.671875h-48.898438zm88 50.96875c-4.710938-2.738281-10.175781-4.296875-16-4.296875h-288v-16h304zm136-292.296875h-70.246094l-63.992187 256h-23.523438l68.007813-272h89.753906c4.414062 0 8 3.585938 8 8s-3.585938 8-8 8zm0 0" data-original="#000000" class="active-path" data-old_color="#1a73e8" fill="#1a73e8"/><path d="m192 88h32v16h-32zm0 0" data-original="#000000" class="active-path" data-old_color="#1a73e8" fill="#1a73e8"/><path d="m256 216c0 4.417969-3.582031 8-8 8s-8-3.582031-8-8 3.582031-8 8-8 8 3.582031 8 8zm0 0" data-original="#000000" class="active-path" data-old_color="#1a73e8" fill="#1a73e8"/></g> </svg>
