<?xml version="1.0"?>
<svg xmlns="http://www.w3.org/2000/svg" height="512px" viewBox="0 0 496 496" width="512px" class=""><g><path d="m456 128h-136v-56c0-13.230469-10.769531-24-24-24h-41.472656c-3.3125-9.289062-12.113282-16-22.527344-16h-8v-8c0-13.230469-10.769531-24-24-24h-80c-13.230469 0-24 10.769531-24 24v8h-8c-10.414062 0-19.214844 6.710938-22.527344 16h-41.472656c-13.230469 0-24 10.769531-24 24v352c0 13.230469 10.769531 24 24 24h136v24c0 13.230469 10.769531 24 24 24h224c13.230469 0 24-10.769531 24-24v-192c0-13.230469-10.769531-24-24-24h-88v-48h136c22.054688 0 40-17.945312 40-40s-17.945312-40-40-40zm-152 160v16h-16v-16h-16v16h-16v-32h80v32h-16v-16zm-120-32c-10.414062 0-19.214844 6.710938-22.527344 16h-97.472656v112h96v16h-112v-304h17.472656c3.3125 9.289062 12.113282 16 22.527344 16h144c10.414062 0 19.214844-6.710938 22.527344-16h17.472656v32h-41.457031l-57.855469 21.695312c-7.582031 2.839844-12.6875 10.199219-12.6875 18.304688s5.105469 15.464844 12.679688 18.304688l57.863281 21.695312h41.457031v48zm-24 32v80h-80v-80zm18.296875-116.679688c-1.375-.519531-2.296875-1.847656-2.296875-3.320312s.921875-2.800781 2.304688-3.320312l45.695312-17.136719v40.914062zm61.703125 20.679688v-16h160v16zm160-32h-160v-16h160zm-96-88v56h-16v-48h-32v-16h40c4.414062 0 8 3.59375 8 8zm-192-48c0-4.40625 3.585938-8 8-8h80c4.414062 0 8 3.59375 8 8v8h-96zm-32 32c0-4.40625 3.585938-8 8-8h144c4.414062 0 8 3.59375 8 8v32c0 4.40625-3.585938 8-8 8h-144c-4.414062 0-8-3.59375-8-8zm-56 376c-4.414062 0-8-3.585938-8-8v-352c0-4.40625 3.585938-8 8-8h40v16h-32v336h128v16zm392-152v192c0 4.414062-3.585938 8-8 8h-224c-4.414062 0-8-3.585938-8-8v-192c0-4.414062 3.585938-8 8-8h56v48h112v-48h56c4.414062 0 8 3.585938 8 8zm-112-24h-16v-48h16zm152-64h-40v-48h40c13.230469 0 24 10.769531 24 24s-10.769531 24-24 24zm0 0" data-original="#000000" class="active-path" data-old_color="#1a73e8" fill="#1a73e8"/><path d="m192 448h96v16h-96zm0 0" data-original="#000000" class="active-path" data-old_color="#1a73e8" fill="#1a73e8"/><path d="m192 416h80v16h-80zm0 0" data-original="#000000" class="active-path" data-old_color="#1a73e8" fill="#1a73e8"/><path d="m96 64h16v16h-16zm0 0" data-original="#000000" class="active-path" data-old_color="#1a73e8" fill="#1a73e8"/><path d="m208 64h16v16h-16zm0 0" data-original="#000000" class="active-path" data-old_color="#1a73e8" fill="#1a73e8"/><path d="m64 128h80v16h-80zm0 0" data-original="#000000" class="active-path" data-old_color="#1a73e8" fill="#1a73e8"/><path d="m64 160h80v16h-80zm0 0" data-original="#000000" class="active-path" data-old_color="#1a73e8" fill="#1a73e8"/><path d="m64 192h80v16h-80zm0 0" data-original="#000000" class="active-path" data-old_color="#1a73e8" fill="#1a73e8"/><path d="m64 224h80v16h-80zm0 0" data-original="#000000" class="active-path" data-old_color="#1a73e8" fill="#1a73e8"/></g> </svg>
